# Blender v2.93.1 OBJ File: 'boxx_zaloha_otexturovana - kopie.blend'
# www.blender.org
mtllib seb_box.mtl
o Box_Cube.001
v -1.040000 -0.000000 0.800000
v -0.800000 0.050000 0.800000
v -0.800000 -0.000000 0.800000
v -1.040000 2.100000 -0.800000
v -1.040000 2.100000 -1.040000
v 1.040000 2.100000 0.800000
v -0.800000 2.100000 1.040000
v -0.800000 2.050000 0.800000
v -0.800000 2.100000 0.800000
v 0.800000 2.100000 1.040000
v 0.800000 2.100000 -1.040000
v 1.040000 -0.000000 0.800000
v -0.800000 -0.000000 1.040000
v -1.040000 0.000000 -0.800000
v 0.800000 -0.000000 1.040000
v -1.040000 2.100000 0.800000
v 1.040000 2.100000 -0.800000
v 0.800000 0.250000 -1.000000
v 1.040000 0.000000 -0.800000
v 1.000000 0.250000 -0.800000
v -1.040000 -0.000000 1.040000
v -0.800000 2.050000 -0.800000
v -0.800000 2.100000 -1.040000
v 0.800000 2.050000 0.800000
v 0.800000 2.100000 0.800000
v -0.800000 2.100000 -0.800000
v -1.000000 0.250000 -0.800000
v 1.000000 1.850000 0.800000
v -0.800000 0.250000 -1.000000
v 0.800000 1.850000 -1.000000
v 1.000000 0.050000 0.800000
v 1.040000 2.100000 -1.040000
v 0.800000 2.100000 -0.800000
v -0.800000 0.250000 1.000000
v 1.040000 2.100000 1.040000
v -0.800000 0.050000 1.000000
v 0.800000 0.050000 1.000000
v 1.000000 0.250000 0.800000
v -1.000000 0.050000 -0.800000
v -1.000000 2.050000 0.800000
v 0.800000 1.850000 1.000000
v 0.800000 2.050000 -0.800000
v -1.040000 2.100000 1.040000
v 1.000000 1.850000 -0.800000
v -1.000000 0.250000 0.800000
v 1.000000 2.050000 -0.800000
v 0.800000 0.250000 1.000000
v -1.000000 1.850000 -0.800000
v -0.800000 2.050000 -1.000000
v -0.800000 1.850000 1.000000
v -1.000000 1.850000 0.800000
v -0.800000 1.850000 -1.000000
v 0.800000 2.050000 -1.000000
v 1.040000 -0.000000 1.040000
v -0.800000 0.000000 -1.040000
v -0.800000 0.000000 -0.800000
v 1.040000 0.000000 -1.040000
v 0.800000 0.000000 -0.800000
v -0.800000 2.050000 1.000000
v -0.600000 1.850000 -1.000000
v -0.600000 0.250000 1.000000
v 1.000000 2.050000 0.800000
v 0.800000 0.050000 0.800000
v 1.000000 0.250000 0.600000
v -1.000000 0.250000 -0.600000
v -0.800000 0.050000 -0.800000
v 0.600000 2.050000 0.800000
v 0.600000 1.850000 1.000000
v 0.600000 0.250000 -1.000000
v 0.600000 0.050000 -0.800000
v -0.600000 2.050000 -0.800000
v 0.800000 2.050000 1.000000
v 0.800000 0.050000 -1.000000
v 0.800000 0.050000 -0.800000
v 0.800000 1.850000 -0.960000
v -0.800000 0.050000 0.600000
v -0.800000 2.050000 -0.600000
v 1.000000 1.850000 -0.600000
v 0.800000 2.050000 0.600000
v -1.000000 1.850000 0.600000
v -1.000000 0.050000 0.800000
v -0.960000 0.250000 0.800000
v -0.980000 0.250000 -0.800000
v -0.600000 0.050000 0.800000
v -0.600000 0.090000 0.800000
v 1.000000 0.050000 -0.800000
v 0.800000 0.050000 -0.600000
v 0.960000 1.850000 0.800000
v -0.800000 0.250000 0.980000
v 0.800000 0.250000 0.960000
v -0.800000 1.850000 0.960000
v -0.960000 1.850000 -0.800000
v -0.980000 1.850000 0.600000
v 0.800000 0.450000 -0.960000
v -0.600000 1.850000 -0.960000
v -0.800000 0.250000 -0.960000
v -0.800000 1.850000 -0.980000
v 0.960000 1.850000 -0.600000
v 0.960000 0.450000 0.800000
v 0.960000 0.250000 -0.800000
v 0.800000 0.090000 -0.600000
v 0.800000 0.090000 0.800000
v -0.800000 0.090000 -0.800000
v 0.800000 0.070000 -0.600000
v -0.600000 0.070000 0.800000
v 0.800000 0.070000 -0.800000
v 0.600000 0.070000 -0.800000
v -0.800000 0.070000 0.600000
v 0.600000 0.090000 -0.800000
v -1.000000 2.050000 -0.800000
v -0.800000 0.050000 -1.000000
v 0.800000 2.010000 -0.800000
v -0.800000 2.010000 0.800000
v -0.800000 0.090000 0.600000
v 0.800000 0.450000 -0.980000
v 0.800000 0.250000 -0.980000
v 0.600000 0.250000 -0.980000
v -0.800000 1.650000 -0.980000
v -0.800000 1.650000 -0.960000
v -0.600000 1.850000 -0.980000
v -0.600000 0.250000 0.980000
v 0.800000 1.650000 0.980000
v -0.800000 0.450000 0.980000
v 0.600000 1.850000 0.980000
v -0.800000 0.450000 0.960000
v 0.600000 0.250000 -0.960000
v -0.600000 0.250000 0.960000
v 0.800000 1.650000 0.960000
v 0.600000 1.850000 0.960000
v 0.980000 1.850000 -0.600000
v 0.980000 0.450000 0.800000
v 0.980000 1.850000 -0.800000
v 0.980000 1.650000 -0.800000
v 0.980000 0.250000 0.600000
v 0.960000 0.250000 0.600000
v 0.980000 0.250000 0.800000
v 0.960000 1.650000 -0.800000
v -0.980000 0.450000 -0.800000
v -0.980000 0.250000 -0.600000
v -0.960000 1.850000 0.600000
v -0.980000 1.850000 0.800000
v 0.600000 2.030000 0.800000
v -0.800000 2.030000 -0.600000
v -0.600000 2.030000 -0.800000
v 0.800000 2.030000 0.600000
v 0.800000 2.010000 0.600000
v -0.800000 2.030000 -0.800000
v 0.800000 2.030000 0.800000
v -0.960000 0.450000 -0.800000
v -0.800000 2.010000 -0.600000
v -0.960000 1.650000 0.800000
v -0.600000 2.010000 -0.800000
v -0.980000 1.650000 0.800000
v -0.960000 0.250000 -0.600000
v 0.800000 -0.000000 0.800000
v -1.040000 0.000000 -1.040000
v 0.800000 0.000000 -1.040000
v -0.800000 0.070000 0.800000
v 0.800000 1.850000 0.980000
v 0.600000 2.010000 0.800000
vt 0.792892 0.469587
vt 0.792892 0.236295
vt 0.733825 0.236295
vt 0.733825 0.469587
vt 0.487549 0.763705
vt 0.487549 0.706883
vt 0.245276 0.706883
vt 0.245276 0.763705
vt 0.731823 0.704881
vt 0.731823 0.471589
vt 0.672757 0.471589
vt 0.672757 0.704881
vt 0.922663 0.840237
vt 0.918033 0.844587
vt 0.922663 0.844587
vt 0.930297 0.832884
vt 0.925666 0.837234
vt 0.930297 0.837234
vt 0.922663 0.832884
vt 0.918033 0.837234
vt 0.922663 0.837234
vt 0.930297 0.825531
vt 0.925666 0.829881
vt 0.930297 0.829881
vt 0.731823 0.002002
vt 0.490552 0.234293
vt 0.731823 0.234293
vt 0.930297 0.847590
vt 0.925666 0.851940
vt 0.930297 0.851940
vt 0.922663 0.825531
vt 0.918033 0.829881
vt 0.922663 0.829881
vt 0.917032 0.828880
vt 0.921662 0.824530
vt 0.917032 0.824530
vt 0.924665 0.828880
vt 0.929296 0.824530
vt 0.924665 0.824530
vt 0.917032 0.836233
vt 0.921662 0.831883
vt 0.917032 0.831883
vt 0.922663 0.847590
vt 0.918033 0.851940
vt 0.922663 0.851940
vt 0.930297 0.840237
vt 0.925666 0.844587
vt 0.930297 0.844587
vt 0.924665 0.836233
vt 0.929296 0.831883
vt 0.924665 0.831883
vt 0.917032 0.843586
vt 0.921662 0.839236
vt 0.917032 0.839236
vt 0.924665 0.843586
vt 0.929296 0.839236
vt 0.924665 0.839236
vt 0.917032 0.850939
vt 0.921662 0.846589
vt 0.917032 0.846589
vt 0.243274 0.237296
vt 0.002002 0.469587
vt 0.243274 0.469587
vt 0.243274 0.763705
vt 0.243274 0.706883
vt 0.001001 0.706883
vt 0.001001 0.763705
vt 0.487549 0.002002
vt 0.246277 0.234293
vt 0.487549 0.234293
vt 0.670755 0.471589
vt 0.611688 0.471589
vt 0.611688 0.704881
vt 0.670755 0.704881
vt 0.243274 0.472590
vt 0.002002 0.704881
vt 0.243274 0.704881
vt 0.731823 0.976940
vt 0.731823 0.971589
vt 0.489551 0.971589
vt 0.489551 0.976940
vt 0.002002 0.234293
vt 0.243274 0.002002
vt 0.243274 0.234293
vt 0.548617 0.236295
vt 0.548617 0.469587
vt 0.489551 0.469587
vt 0.489551 0.265457
vt 0.489551 0.236295
vt 0.609686 0.530413
vt 0.550619 0.530413
vt 0.550619 0.587234
vt 0.609686 0.587234
vt 0.548617 0.530413
vt 0.489551 0.530413
vt 0.489551 0.587234
vt 0.548617 0.587234
vt 0.487549 0.528411
vt 0.487549 0.471589
vt 0.245276 0.471589
vt 0.245276 0.528411
vt 0.487549 0.469587
vt 0.246277 0.469587
vt 0.487549 0.237296
vt 0.609686 0.236295
vt 0.609686 0.469587
vt 0.550619 0.469587
vt 0.550619 0.236295
vt 0.558003 0.236295
vt 0.245276 0.587234
vt 0.487549 0.587234
vt 0.487549 0.530413
vt 0.245276 0.530413
vt 0.792892 0.001001
vt 0.792892 0.205132
vt 0.792892 0.234293
vt 0.733826 0.234293
vt 0.733825 0.001001
vt 0.487549 0.638955
vt 0.487549 0.646058
vt 0.245276 0.646058
vt 0.245276 0.589236
vt 0.487548 0.589236
vt 0.001001 0.471589
vt 0.242273 0.471589
vt 0.001001 0.703880
vt 0.670755 0.469587
vt 0.611688 0.469587
vt 0.611688 0.265457
vt 0.611688 0.236295
vt 0.670755 0.236295
vt 0.609686 0.471589
vt 0.550619 0.471589
vt 0.550619 0.528411
vt 0.609686 0.528411
vt 0.487549 0.704881
vt 0.245276 0.704881
vt 0.245276 0.648060
vt 0.275560 0.648060
vt 0.487549 0.648060
vt 0.731823 0.469587
vt 0.731823 0.236295
vt 0.672757 0.236295
vt 0.672757 0.469587
vt 0.487549 0.976940
vt 0.487549 0.971589
vt 0.245276 0.971589
vt 0.245276 0.976940
vt 0.998999 0.706883
vt 0.993367 0.706883
vt 0.993367 0.940175
vt 0.998999 0.940175
vt 0.548617 0.471589
vt 0.489551 0.471589
vt 0.489551 0.528411
vt 0.548617 0.528411
vt 0.976098 0.969587
vt 0.976098 0.964236
vt 0.733825 0.964236
vt 0.733825 0.969587
vt 0.486548 0.236295
vt 0.245276 0.468586
vt 0.245276 0.236295
vt 0.998999 0.471589
vt 0.993367 0.471589
vt 0.993367 0.704881
vt 0.998999 0.704881
vt 0.731823 0.969587
vt 0.731823 0.964236
vt 0.489551 0.964236
vt 0.489551 0.969587
vt 0.998999 0.236295
vt 0.993367 0.236295
vt 0.993367 0.469587
vt 0.998999 0.469587
vt 0.487549 0.969587
vt 0.487549 0.964236
vt 0.245276 0.964236
vt 0.245276 0.969587
vt 0.960831 0.706883
vt 0.955199 0.706883
vt 0.955199 0.763705
vt 0.960831 0.763705
vt 0.998999 0.001001
vt 0.993367 0.001001
vt 0.993367 0.234293
vt 0.998999 0.234293
vt 0.487549 0.962234
vt 0.487549 0.956883
vt 0.245276 0.956883
vt 0.245276 0.962234
vt 0.953197 0.706883
vt 0.947566 0.706883
vt 0.947566 0.763705
vt 0.953197 0.763705
vt 0.991365 0.706883
vt 0.985734 0.706883
vt 0.985734 0.940175
vt 0.991365 0.940175
vt 0.733825 0.976940
vt 0.976098 0.976940
vt 0.976098 0.971589
vt 0.733825 0.971589
vt 0.991365 0.471589
vt 0.985734 0.471589
vt 0.985734 0.704881
vt 0.991365 0.704881
vt 0.489551 0.954881
vt 0.731823 0.954881
vt 0.731823 0.949530
vt 0.489551 0.949530
vt 0.991365 0.236295
vt 0.985734 0.236295
vt 0.985734 0.469587
vt 0.991365 0.469587
vt 0.976098 0.706883
vt 0.970467 0.706883
vt 0.970467 0.763705
vt 0.976098 0.763705
vt 0.968465 0.706883
vt 0.962833 0.706883
vt 0.962833 0.763705
vt 0.968465 0.763705
vt 0.733825 0.947528
vt 0.976098 0.947528
vt 0.976098 0.942177
vt 0.733825 0.942177
vt 0.930297 0.706883
vt 0.924665 0.706883
vt 0.924665 0.763705
vt 0.930297 0.763705
vt 0.922663 0.706883
vt 0.917032 0.706883
vt 0.917032 0.763705
vt 0.922663 0.763705
vt 0.991365 0.001001
vt 0.985734 0.001001
vt 0.985734 0.234293
vt 0.991365 0.234293
vt 0.487549 0.947528
vt 0.487549 0.942177
vt 0.245276 0.942177
vt 0.245276 0.947528
vt 0.976098 0.001001
vt 0.917032 0.001001
vt 0.917032 0.234293
vt 0.976098 0.234293
vt 0.489551 0.772810
vt 0.489551 0.765707
vt 0.731823 0.765707
vt 0.731823 0.822528
vt 0.489551 0.822528
vt 0.924665 0.850939
vt 0.929296 0.846589
vt 0.924665 0.846589
vt 0.983732 0.706883
vt 0.978100 0.706883
vt 0.978100 0.940175
vt 0.983732 0.940175
vt 0.487548 0.877801
vt 0.366412 0.881352
vt 0.245276 0.877801
vt 0.245276 0.828082
vt 0.366412 0.824530
vt 0.487549 0.828082
vt 0.976098 0.469587
vt 0.976098 0.236295
vt 0.917032 0.236295
vt 0.917032 0.469587
vt 0.245276 0.233292
vt 0.486548 0.001001
vt 0.245276 0.001001
vt 0.489551 0.831633
vt 0.489551 0.824530
vt 0.731823 0.824530
vt 0.731823 0.881352
vt 0.489551 0.881352
vt 0.983732 0.236295
vt 0.978100 0.236295
vt 0.978100 0.469587
vt 0.983732 0.469587
vt 0.609686 0.648060
vt 0.550619 0.648060
vt 0.550619 0.704881
vt 0.609686 0.704881
vt 0.457265 0.940175
vt 0.245276 0.940175
vt 0.245276 0.883354
vt 0.487549 0.883354
vt 0.487549 0.940175
vt 0.945564 0.706883
vt 0.939932 0.706883
vt 0.939932 0.763705
vt 0.945564 0.763705
vt 0.548617 0.648060
vt 0.489551 0.648060
vt 0.489551 0.704881
vt 0.548617 0.704881
vt 0.983732 0.001001
vt 0.978100 0.001001
vt 0.978100 0.234293
vt 0.983732 0.234293
vt 0.731823 0.940175
vt 0.731823 0.883354
vt 0.489551 0.883354
vt 0.489551 0.940175
vt 0.792892 0.940175
vt 0.792892 0.706883
vt 0.733825 0.706883
vt 0.733825 0.940175
vt 0.243274 0.998999
vt 0.243274 0.942177
vt 0.001001 0.942177
vt 0.001001 0.998999
vt 0.853961 0.925595
vt 0.824427 0.940175
vt 0.794894 0.925595
vt 0.794894 0.721464
vt 0.824427 0.706883
vt 0.853961 0.721464
vt 0.487549 0.984293
vt 0.487549 0.978942
vt 0.245276 0.978942
vt 0.245276 0.984293
vt 0.855963 0.940175
vt 0.855963 0.736045
vt 0.855963 0.706883
vt 0.915029 0.706883
vt 0.915030 0.940175
vt 0.937930 0.706883
vt 0.932299 0.706883
vt 0.932299 0.763705
vt 0.937930 0.763705
vt 0.960831 0.765707
vt 0.955199 0.765707
vt 0.955199 0.822528
vt 0.960831 0.822528
vt 0.953197 0.765707
vt 0.947566 0.765707
vt 0.947566 0.822528
vt 0.953197 0.822528
vt 0.976098 0.765707
vt 0.970467 0.765707
vt 0.970467 0.822528
vt 0.976098 0.822528
vt 0.976098 0.954881
vt 0.976098 0.949530
vt 0.733825 0.949530
vt 0.733825 0.954881
vt 0.976098 0.675720
vt 0.976098 0.704881
vt 0.917032 0.704881
vt 0.917032 0.471589
vt 0.976098 0.471589
vt 0.243274 0.936624
vt 0.122137 0.940175
vt 0.001001 0.936624
vt 0.001001 0.886905
vt 0.122137 0.883354
vt 0.243274 0.886905
vt 0.983732 0.471589
vt 0.978100 0.471589
vt 0.978100 0.704881
vt 0.983732 0.704881
vt 0.212990 0.824530
vt 0.243274 0.824530
vt 0.243274 0.881352
vt 0.001001 0.881352
vt 0.001001 0.824530
vt 0.885496 0.471589
vt 0.915030 0.486170
vt 0.915030 0.690301
vt 0.885496 0.704881
vt 0.855963 0.690301
vt 0.855963 0.486170
vt 0.489551 0.947528
vt 0.731823 0.947528
vt 0.731823 0.942177
vt 0.489551 0.942177
vt 0.968465 0.765707
vt 0.962833 0.765707
vt 0.962833 0.822528
vt 0.968465 0.822528
vt 0.609686 0.589236
vt 0.550619 0.589236
vt 0.550619 0.646058
vt 0.609686 0.646058
vt 0.930297 0.765707
vt 0.924665 0.765707
vt 0.924665 0.822528
vt 0.930297 0.822528
vt 0.907646 0.469587
vt 0.855963 0.469587
vt 0.855963 0.236295
vt 0.915030 0.236295
vt 0.915030 0.469587
vt 0.487549 0.818977
vt 0.366412 0.822528
vt 0.245276 0.818977
vt 0.245276 0.769258
vt 0.366412 0.765707
vt 0.487548 0.769258
vt 0.922663 0.765707
vt 0.917032 0.765707
vt 0.917032 0.822528
vt 0.922663 0.822528
vt 0.001001 0.468586
vt 0.242273 0.236295
vt 0.001001 0.236295
vt 0.548617 0.589236
vt 0.489551 0.589236
vt 0.489551 0.646058
vt 0.548617 0.646058
vt 0.945564 0.765707
vt 0.939932 0.765707
vt 0.939932 0.822528
vt 0.945564 0.822528
vt 0.915030 0.205132
vt 0.915030 0.234293
vt 0.855963 0.234293
vt 0.855963 0.001001
vt 0.915030 0.001001
vt 0.487549 0.954881
vt 0.487549 0.949530
vt 0.245276 0.949530
vt 0.245276 0.954881
vt 0.794894 0.704881
vt 0.794894 0.500751
vt 0.794894 0.471589
vt 0.853961 0.471589
vt 0.853961 0.704881
vt 0.243274 0.822528
vt 0.031285 0.822528
vt 0.001001 0.822528
vt 0.001001 0.765707
vt 0.243274 0.765707
vt 0.489551 0.233292
vt 0.730822 0.001001
vt 0.489551 0.001001
vt 0.853961 0.236295
vt 0.794894 0.236295
vt 0.794894 0.469587
vt 0.853961 0.469587
vt 0.731823 0.763705
vt 0.731823 0.706883
vt 0.489551 0.706883
vt 0.489551 0.763705
vt 0.242273 0.001001
vt 0.001001 0.233292
vt 0.001001 0.001001
vt 0.937930 0.765707
vt 0.932299 0.765707
vt 0.932299 0.822528
vt 0.937930 0.822528
vt 0.853961 0.001001
vt 0.794894 0.001001
vt 0.794894 0.234293
vt 0.853961 0.234293
vt 0.731823 0.962234
vt 0.731823 0.956883
vt 0.489551 0.956883
vt 0.489551 0.962234
vt 0.733826 0.486170
vt 0.763359 0.471589
vt 0.792892 0.486170
vt 0.792892 0.690301
vt 0.763359 0.704881
vt 0.733825 0.690301
vt 0.976098 0.962234
vt 0.976098 0.956883
vt 0.733825 0.956883
vt 0.733825 0.962234
vn 1.0000 0.0000 0.0000
vn 0.0000 -0.0000 1.0000
vn 0.0000 0.0000 -1.0000
vn 0.0000 -1.0000 0.0000
vn -0.1580 0.9874 0.0000
vn -1.0000 0.0000 0.0000
vn 0.0000 1.0000 0.0000
vn 0.7071 -0.7071 0.0000
vn -0.7071 -0.0000 0.7071
vn 0.0000 -0.7071 -0.7071
vn -0.7071 -0.7071 0.0000
vn -0.7071 0.0000 -0.7071
vn -0.7071 0.7071 0.0000
vn 0.0000 0.7071 0.7071
vn 0.0000 0.7071 -0.7071
vn 0.7071 0.7071 0.0000
vn 0.7071 0.0000 0.7071
vn 0.0000 -0.7071 0.7071
vn 0.7071 0.0000 -0.7071
usemtl Material.001
s off
f 7/1/1 13/2/1 3/3/1 9/4/1
f 26/5/2 4/6/2 14/7/2 56/8/2
f 26/9/1 56/10/1 55/11/1 23/12/1
f 109/13/1 70/14/1 107/15/1
f 76/16/2 114/17/2 108/18/2
f 87/19/1 101/20/1 104/21/1
f 85/22/2 84/23/2 105/24/2
f 119/25/3 126/26/3 96/27/3
f 60/28/4 95/29/4 120/30/4
f 61/31/5 127/32/5 121/33/5
f 68/34/4 129/35/4 124/36/4
f 64/37/2 135/38/2 134/39/2
f 78/40/3 98/41/3 130/42/3
f 77/43/6 150/44/6 143/45/6
f 152/46/2 71/47/2 144/48/2
f 80/49/2 140/50/2 93/51/2
f 65/52/2 154/53/2 139/54/2
f 79/55/6 146/56/6 145/57/6
f 160/58/2 67/59/2 142/60/2
f 109/61/4 114/62/4 103/63/4
f 4/64/6 5/65/6 156/66/6 14/67/6
f 137/68/1 135/69/1 100/70/1
f 19/71/1 57/72/1 32/73/1 17/74/1
f 152/75/7 146/76/7 112/77/7
f 127/78/7 61/79/7 47/80/7 90/81/7
f 149/82/6 140/83/6 92/84/6
f 81/85/4 39/86/4 66/87/4 76/88/4 2/89/4
f 1/90/4 3/91/4 13/92/4 21/93/4
f 17/94/7 32/95/7 11/96/7 33/97/7
f 57/98/3 157/99/3 11/100/3 32/101/3
f 75/102/3 94/103/3 95/104/3
f 66/105/4 111/106/4 73/107/4 74/108/4 70/109/4
f 16/110/6 1/111/6 21/112/6 43/113/6
f 63/114/4 87/115/4 74/116/4 86/117/4 31/118/4
f 79/119/7 24/120/7 62/121/7 46/122/7 42/123/7
f 113/124/7 160/125/7 150/126/7
f 111/127/3 29/128/3 69/129/3 18/130/3 73/131/3
f 35/132/7 6/133/7 25/134/7 10/135/7
f 59/136/7 72/137/7 24/138/7 67/139/7 8/140/7
f 13/141/2 7/142/2 43/143/2 21/144/2
f 112/145/2 42/146/2 71/147/2 152/148/2
f 48/149/4 92/150/4 140/151/4 80/152/4
f 157/153/4 57/154/4 19/155/4 58/156/4
f 128/157/8 122/158/8 121/159/8 127/160/8
f 99/161/1 98/162/1 88/163/1
f 114/164/1 76/165/1 66/166/1 103/167/1
f 50/168/4 91/169/4 129/170/4 68/171/4
f 154/172/7 65/173/7 45/174/7 82/175/7
f 28/176/4 88/177/4 98/178/4 78/179/4
f 141/180/4 51/181/4 80/182/4 93/183/4
f 143/184/9 150/185/9 160/186/9 142/187/9
f 137/188/10 133/189/10 134/190/10 135/191/10
f 136/192/7 38/193/7 64/194/7 134/195/7
f 117/196/11 126/197/11 119/198/11 118/199/11
f 107/200/12 108/201/12 114/202/12 109/203/12
f 124/204/13 129/205/13 125/206/13 123/207/13
f 63/208/3 84/209/3 85/210/3 102/211/3
f 8/212/1 113/213/1 150/214/1 77/215/1
f 89/216/7 34/217/7 61/218/7 121/219/7
f 144/220/2 71/221/2 22/222/2 147/223/2
f 66/224/2 70/225/2 109/226/2 103/227/2
f 159/228/4 41/229/4 68/230/4 124/231/4
f 2/232/3 158/233/3 105/234/3 84/235/3
f 99/236/14 131/237/14 130/238/14 98/239/14
f 149/240/15 138/241/15 93/242/15 140/243/15
f 33/244/6 11/245/6 157/246/6 58/247/6
f 65/248/6 27/249/6 39/250/6 81/251/6 45/252/6
f 69/253/7 126/254/7 117/255/7
f 94/256/16 115/257/16 120/258/16 95/259/16
f 133/260/1 132/261/1 130/262/1 131/263/1 136/264/1 134/265/1
f 12/266/1 6/267/1 35/268/1 54/269/1
f 151/270/6 154/271/6 82/272/6
f 60/273/3 52/274/3 49/275/3 53/276/3 30/277/3
f 85/278/17 105/279/17 104/280/17 101/281/17
f 156/282/4 55/283/4 56/284/4 14/285/4
f 71/286/7 42/287/7 53/288/7 49/289/7 22/290/7
f 87/291/6 104/292/6 106/293/6 74/294/6
f 26/295/7 23/296/7 5/297/7 4/298/7
f 151/299/18 153/300/18 139/301/18 154/302/18
f 10/303/6 25/304/6 155/305/6 15/306/6
f 33/307/2 58/308/2 19/309/2 17/310/2
f 25/311/3 6/312/3 12/313/3 155/314/3
f 123/315/2 89/316/2 121/317/2 122/318/2 159/319/2 124/320/2
f 152/321/19 144/322/19 145/323/19 146/324/19
f 8/325/7 77/326/7 22/327/7 110/328/7 40/329/7
f 83/330/7 27/331/7 65/332/7 139/333/7
f 147/334/1 22/335/1 77/336/1 143/337/1
f 79/338/6 145/339/6 148/340/6 24/341/6
f 24/342/3 148/343/3 142/344/3 67/345/3
f 113/346/3 8/347/3 67/348/3 160/349/3
f 78/350/1 44/351/1 46/352/1 62/353/1 28/354/1
f 115/355/3 116/356/3 117/357/3 118/358/3 97/359/3 120/360/3
f 42/361/6 112/362/6 146/363/6 79/364/6
f 61/365/2 34/366/2 36/367/2 37/368/2 47/369/2
f 141/370/6 93/371/6 138/372/6 83/373/6 139/374/6 153/375/6
f 102/376/6 101/377/6 87/378/6 63/379/6
f 97/380/4 52/381/4 60/382/4 120/383/4
f 155/384/4 12/385/4 54/386/4 15/387/4
f 69/388/7 117/389/7 116/390/7 18/391/7
f 84/392/4 63/393/4 37/394/4 36/395/4 2/396/4
f 105/397/4 158/398/4 108/399/4 107/400/4 106/401/4 104/402/4
f 158/403/1 2/404/1 76/405/1 108/406/1
f 85/407/4 101/408/4 102/409/4
f 7/410/7 9/411/7 16/412/7 43/413/7
f 132/414/4 44/415/4 78/416/4 130/417/4
f 80/418/6 51/419/6 40/420/6 110/421/6 48/422/6
f 126/423/7 69/424/7 29/425/7 96/426/7
f 20/427/1 64/428/1 38/429/1 31/430/1 86/431/1
f 50/432/2 68/433/2 41/434/2 72/435/2 59/436/2
f 128/437/2 127/438/2 90/439/2
f 15/440/2 54/441/2 35/442/2 10/443/2
f 5/444/3 23/445/3 55/446/3 156/447/3
f 125/448/2 129/449/2 91/450/2
f 107/451/2 70/452/2 74/453/2 106/454/2
f 3/455/3 1/456/3 16/457/3 9/458/3
f 95/459/4 60/460/4 30/461/4 75/462/4
f 144/463/7 147/464/7 143/465/7 142/466/7 148/467/7 145/468/7
f 135/469/7 64/470/7 20/471/7 100/472/7
l 151 40
l 83 149
